<svg data-v-423bf9ae="" xmlns="http://www.w3.org/2000/svg" viewBox="0 0 388.88139814482855 60" class="font"><!----><!----><!----><g data-v-423bf9ae="" id="8f0691d7-7eaf-4cb6-9ff3-9b0917ad8ab4" fill="black" transform="matrix(5.0847460914706275,0,0,5.0847460914706275,-3.7627161812159216,-6.05084861663871)"><path d="M5.11 1.19L5.11 1.19Q5.60 1.19 6.05 1.25Q6.51 1.32 6.85 1.39L6.85 1.39Q7.24 1.47 7.57 1.58L7.57 1.58L7.57 2.79Q6.99 2.63 6.36 2.54Q5.74 2.45 5.14 2.47Q4.54 2.49 3.99 2.67Q3.44 2.86 3.03 3.25Q2.62 3.65 2.38 4.30Q2.14 4.96 2.14 5.94L2.14 5.94Q2.14 6.92 2.38 7.57Q2.62 8.23 3.03 8.63Q3.44 9.03 3.99 9.21Q4.54 9.39 5.14 9.41Q5.74 9.44 6.36 9.34Q6.99 9.24 7.57 9.09L7.57 9.09L7.57 10.23Q7.24 10.36 6.85 10.46L6.85 10.46Q6.51 10.54 6.05 10.61Q5.60 10.67 5.11 10.67L5.11 10.67Q4.44 10.67 3.67 10.46Q2.90 10.26 2.25 9.74Q1.60 9.21 1.17 8.29Q0.74 7.38 0.74 5.94L0.74 5.94Q0.74 4.98 0.94 4.26Q1.13 3.53 1.47 3.00Q1.81 2.48 2.25 2.13Q2.70 1.78 3.19 1.57Q3.67 1.36 4.17 1.27Q4.66 1.19 5.11 1.19ZM13.36 3.36L14.87 3.36L12.19 10.12Q11.89 10.93 11.40 11.56L11.40 11.56Q11.19 11.83 10.91 12.09Q10.63 12.35 10.28 12.54Q9.93 12.74 9.51 12.87Q9.09 12.99 8.58 12.99L8.58 12.99L8.58 11.90Q9.32 11.90 9.77 11.62Q10.21 11.34 10.44 10.99L10.44 10.99Q10.71 10.60 10.82 10.08L10.82 10.08L8.11 3.36L9.62 3.36L11.52 9.18L13.36 3.36ZM19.96 3.19L19.96 3.19Q20.68 3.19 21.25 3.49Q21.81 3.79 22.20 4.31Q22.60 4.83 22.80 5.51Q23.00 6.19 23.00 6.94L23.00 6.94Q23.00 7.70 22.80 8.38Q22.60 9.06 22.20 9.56Q21.81 10.07 21.25 10.37Q20.68 10.67 19.96 10.67L19.96 10.67Q19.28 10.67 18.81 10.49Q18.34 10.30 18.06 10.08L18.06 10.08Q17.72 9.83 17.53 9.48L17.53 9.48L17.53 9.49L17.25 10.50L16.21 10.50L16.21 1.62L17.53 1.62L17.53 4.28Q17.96 3.71 18.61 3.45Q19.26 3.19 19.96 3.19ZM19.67 9.60L19.67 9.60Q20.06 9.60 20.41 9.44Q20.76 9.28 21.03 8.95Q21.29 8.62 21.45 8.12Q21.60 7.62 21.60 6.94L21.60 6.94Q21.60 6.27 21.45 5.77Q21.29 5.26 21.03 4.93Q20.76 4.59 20.41 4.42Q20.06 4.26 19.67 4.26L19.67 4.26Q19.25 4.26 18.87 4.42Q18.48 4.59 18.19 4.93Q17.89 5.26 17.71 5.77Q17.53 6.27 17.53 6.94L17.53 6.94Q17.53 7.62 17.71 8.12Q17.89 8.62 18.19 8.95Q18.48 9.28 18.87 9.44Q19.25 9.60 19.67 9.60ZM28.14 10.67L28.14 10.67Q26.94 10.67 26.19 10.31Q25.44 9.95 25.02 9.39Q24.60 8.83 24.44 8.14Q24.29 7.45 24.29 6.78L24.29 6.78Q24.29 6.10 24.51 5.46Q24.72 4.82 25.14 4.31Q25.55 3.81 26.15 3.50Q26.75 3.19 27.54 3.19L27.54 3.19Q28.48 3.19 29.11 3.52Q29.74 3.85 30.11 4.38Q30.49 4.90 30.65 5.54Q30.80 6.17 30.80 6.78L30.80 6.78L30.80 7.22L25.69 7.22Q25.75 7.90 26.00 8.41L26.00 8.41Q26.11 8.64 26.28 8.86Q26.45 9.07 26.69 9.24Q26.94 9.41 27.26 9.51Q27.58 9.60 28 9.60L28 9.60Q28.45 9.60 28.85 9.50Q29.25 9.39 29.55 9.27L29.55 9.27Q29.92 9.11 30.23 8.92L30.23 8.92L30.24 10.12Q30.24 10.12 30.08 10.21Q29.92 10.30 29.64 10.40Q29.36 10.50 28.97 10.58Q28.59 10.67 28.14 10.67ZM25.69 6.24L29.40 6.24Q29.40 5.89 29.30 5.54Q29.19 5.18 28.97 4.89Q28.74 4.61 28.39 4.43Q28.04 4.26 27.54 4.26L27.54 4.26Q27.10 4.26 26.76 4.43Q26.42 4.61 26.18 4.89Q25.94 5.18 25.82 5.54Q25.69 5.89 25.69 6.24L25.69 6.24ZM36.55 3.30L36.55 4.47Q36.46 4.44 36.34 4.41L36.34 4.41Q36.25 4.38 36.13 4.36Q36.01 4.34 35.90 4.34L35.90 4.34Q35.29 4.34 34.90 4.61Q34.51 4.89 34.29 5.31Q34.06 5.73 33.97 6.24Q33.88 6.76 33.88 7.25L33.88 7.25L33.88 10.50L32.56 10.50L32.56 3.36L33.68 3.36L33.84 4.47Q34.03 4.12 34.27 3.84Q34.51 3.57 34.83 3.40Q35.15 3.23 35.57 3.20Q35.99 3.16 36.55 3.30L36.55 3.30ZM43.04 2.24L42.52 3.46Q42.03 3.09 41.43 2.88Q40.84 2.67 40.28 2.67L40.28 2.67Q39.62 2.67 39.22 2.94Q38.82 3.21 38.82 3.79L38.82 3.79Q38.82 4.10 38.97 4.32Q39.12 4.54 39.36 4.70Q39.61 4.86 39.93 4.98Q40.25 5.10 40.61 5.22L40.61 5.22Q41.09 5.39 41.58 5.58Q42.07 5.77 42.47 6.08Q42.87 6.38 43.11 6.85Q43.36 7.32 43.36 8.02L43.36 8.02Q43.36 8.71 43.09 9.21Q42.83 9.70 42.39 10.03Q41.96 10.36 41.39 10.51Q40.82 10.67 40.22 10.67L40.22 10.67Q39.33 10.67 38.47 10.32Q37.62 9.98 37.00 9.34L37.00 9.34L37.53 8.18Q38.08 8.75 38.82 9.06Q39.56 9.37 40.28 9.37L40.28 9.37Q40.96 9.37 41.41 9.09Q41.86 8.81 41.87 8.18L41.87 8.18Q41.87 7.84 41.72 7.59Q41.57 7.35 41.30 7.17Q41.03 7 40.69 6.87Q40.35 6.73 40.00 6.61L40.00 6.61Q39.54 6.45 39.07 6.26Q38.60 6.06 38.22 5.76Q37.84 5.46 37.61 5.01Q37.38 4.56 37.38 3.91L37.38 3.91Q37.38 3.23 37.63 2.75Q37.88 2.27 38.30 1.96Q38.71 1.65 39.24 1.50Q39.77 1.36 40.35 1.36L40.35 1.36Q41.10 1.36 41.80 1.60Q42.50 1.83 43.04 2.24L43.04 2.24ZM48.44 3.19L48.44 3.19Q48.89 3.19 49.21 3.24Q49.53 3.29 49.74 3.35L49.74 3.35Q49.99 3.42 50.16 3.50L50.16 3.50L50.16 4.49Q49.53 4.28 48.85 4.26Q48.17 4.23 47.60 4.48Q47.03 4.73 46.66 5.32Q46.28 5.91 46.28 6.93L46.28 6.93Q46.28 7.97 46.66 8.55Q47.03 9.14 47.60 9.39Q48.17 9.63 48.86 9.59Q49.55 9.55 50.16 9.31L50.16 9.31L50.16 10.32Q49.99 10.43 49.74 10.50L49.74 10.50Q49.53 10.57 49.21 10.62Q48.89 10.67 48.44 10.67L48.44 10.67Q47.91 10.67 47.29 10.51Q46.68 10.35 46.14 9.93Q45.60 9.51 45.24 8.78Q44.88 8.05 44.88 6.93L44.88 6.93Q44.88 5.80 45.24 5.07Q45.60 4.34 46.14 3.93Q46.68 3.51 47.29 3.35Q47.91 3.19 48.44 3.19ZM54.61 10.67L54.61 10.67Q53.21 10.67 52.57 9.84Q51.93 9.02 51.93 7.49L51.93 7.49L51.93 3.36L53.26 3.36L53.26 7.13Q53.26 8.40 53.58 9.00Q53.90 9.60 54.71 9.60L54.71 9.60Q55.27 9.60 55.69 9.39Q56.10 9.18 56.38 8.80Q56.66 8.41 56.80 7.88Q56.94 7.34 56.94 6.68L56.94 6.68L56.94 3.36L58.25 3.36L58.25 10.50L57.15 10.50L56.94 9.37Q56.60 9.94 55.96 10.30Q55.31 10.67 54.61 10.67ZM62.99 9.52L62.99 10.50Q62.76 10.58 62.48 10.63Q62.20 10.67 61.96 10.67L61.96 10.67Q61.25 10.67 60.87 10.25Q60.49 9.83 60.49 9.03L60.49 9.03L60.49 1.62L61.81 1.62L61.81 9.00Q61.81 9.30 61.91 9.44Q62.02 9.59 62.27 9.59L62.27 9.59Q62.41 9.59 62.64 9.57Q62.87 9.55 62.99 9.52L62.99 9.52ZM68.56 10.67L68.56 10.67Q67.86 10.67 67.21 10.41Q66.56 10.15 66.12 9.58L66.12 9.58L66.12 12.40L64.81 12.40L64.81 3.36L65.91 3.36L66.12 4.37L66.12 4.38Q66.32 4.05 66.65 3.79L66.65 3.79Q66.93 3.57 67.40 3.38Q67.87 3.19 68.56 3.19L68.56 3.19Q69.27 3.19 69.84 3.49Q70.41 3.79 70.80 4.30Q71.19 4.80 71.39 5.48Q71.60 6.16 71.60 6.92L71.60 6.92Q71.60 7.67 71.39 8.35Q71.19 9.03 70.80 9.55Q70.41 10.07 69.84 10.37Q69.27 10.67 68.56 10.67ZM68.26 4.26L68.26 4.26Q67.84 4.26 67.46 4.42Q67.07 4.58 66.78 4.91Q66.49 5.24 66.30 5.74Q66.12 6.24 66.12 6.92L66.12 6.92Q66.12 7.59 66.30 8.09Q66.49 8.60 66.78 8.93Q67.07 9.27 67.46 9.44Q67.84 9.60 68.26 9.60L68.26 9.60Q68.66 9.60 69.01 9.44Q69.36 9.27 69.62 8.93Q69.89 8.60 70.04 8.09Q70.20 7.59 70.20 6.92L70.20 6.92Q70.20 6.24 70.04 5.74Q69.89 5.24 69.62 4.91Q69.36 4.58 69.01 4.42Q68.66 4.26 68.26 4.26ZM77.22 5.12L75.33 5.12L75.33 8.46Q75.33 9.59 76.30 9.59L76.30 9.59Q76.71 9.59 77.13 9.38L77.13 9.38L77.13 10.40Q76.55 10.67 75.91 10.67L75.91 10.67Q74.98 10.67 74.47 10.14Q73.96 9.62 73.96 8.60L73.96 8.60L73.96 5.12L72.69 5.12L72.69 4.05L73.96 4.05L73.96 1.95L75.33 1.62L75.33 4.05L77.22 4.05L77.22 5.12Z"></path></g><!----><!----></svg>